<?xml version="1.0" encoding="UTF-8"?>
<svg version="1.1" xmlns="http://www.w3.org/2000/svg" width="389" height="322">
<path d="M0 0 C1.04470711 -0.00262848 1.04470711 -0.00262848 2.11051941 -0.00531006 C4.42884779 -0.00973189 6.74710042 -0.0067831 9.06542969 -0.00341797 C10.69138605 -0.00409243 12.31734232 -0.00506364 13.94329834 -0.00631714 C17.3699234 -0.00779577 20.79652249 -0.00563983 24.22314453 -0.00097656 C28.54875029 0.00463161 32.87429338 0.00140269 37.19989681 -0.00441265 C107.57545514 -0.08504149 107.57545514 -0.08504149 125.23730469 16.37939453 C135.24330549 27.40487466 139.98900913 40.21611642 139.51855469 55.09423828 C138.02565026 71.20516518 131.16043269 83.64512009 118.89355469 94.13330078 C104.20495597 105.17359495 86.32161812 107.86609449 68.51855469 105.37158203 C57.7515558 103.7495688 47.05096515 101.82266541 36.42626953 99.43701172 C31.70672136 98.38341559 27.04487292 97.66477052 22.23730469 97.12939453 C22.95195413 100.43800827 22.95195413 100.43800827 26.32910156 101.72070312 C40.52650544 107.25960262 57.63071018 107.36062346 72.66259766 108.78076172 C95.36001641 110.94821501 117.48335574 115.03371721 133.04980469 133.25048828 C140.65781753 143.61640577 142.92817661 156.54868694 141.23730469 169.12939453 C138.18956842 182.71078148 130.77130408 192.53482451 119.23730469 200.12939453 C107.13792651 207.34248537 94.71626567 208.29897093 80.90063477 208.24291992 C79.93342499 208.24306595 78.96621521 208.24321198 77.96969604 208.24336243 C74.81538544 208.24267322 71.66113605 208.23492795 68.50683594 208.22705078 C66.30295341 208.22518307 64.09907047 208.22376083 61.89518738 208.22276306 C56.12656485 208.21896571 50.35796795 208.20915949 44.58935547 208.19805908 C38.69010769 208.18778484 32.79085573 208.18325261 26.89160156 208.17822266 C15.34015808 208.16753445 3.78873352 208.15049185 -7.76269531 208.12939453 C-7.76269531 204.23397971 -7.6606939 203.57444554 -5.82519531 200.50439453 C-1.11428464 191.46914713 -2.61369043 180.06532987 -2.61743164 170.12988281 C-2.61443434 168.53213422 -2.61103051 166.93438635 -2.60725403 165.3366394 C-2.59846918 161.02250994 -2.59607829 156.70840034 -2.59543824 152.39426279 C-2.59472475 149.69285154 -2.59258482 146.99144526 -2.58994102 144.29003525 C-2.58070678 134.84862704 -2.57660384 125.40723289 -2.57739258 115.96582031 C-2.57799327 107.19192166 -2.56743809 98.4180845 -2.55164891 89.6442014 C-2.53853849 82.08718394 -2.53321013 74.5301865 -2.53384799 66.97315776 C-2.53410189 62.47029443 -2.53131045 57.96748585 -2.52066994 53.46463394 C-2.51092943 49.227585 -2.51095022 44.99064251 -2.51818657 40.75358963 C-2.51922496 39.20733991 -2.51691438 37.66108335 -2.51082611 36.11484528 C-2.08694308 19.14221327 -2.08694308 19.14221327 -8.76269531 4.12939453 C-8.76269531 3.13939453 -8.76269531 2.14939453 -8.76269531 1.12939453 C-5.8388764 -0.33251493 -3.26525821 0.0020592 0 0 Z M14.99121094 61.66064453 C11.77313978 66.19031262 11.57379968 70.7455253 12.23730469 76.12939453 C14.34938376 80.01562003 16.92258626 82.02660353 21.09277344 83.56298828 C36.88969456 87.73521699 55.71318481 84.18418221 69.98730469 76.81689453 C76.45143368 72.98542898 82.73878202 68.46880487 85.23730469 61.12939453 C85.7950989 57.30451997 85.41660112 55.50292876 83.73730469 52.00439453 C79.1163871 46.6903393 73.22737539 44.53344884 66.30761719 43.97314453 C49.0707186 43.27670418 26.75400235 48.40449004 14.99121094 61.66064453 Z M12.23730469 113.12939453 C12.63415479 118.18450893 15.35871345 121.07651361 18.61230469 124.69189453 C19.14742676 125.30105713 19.68254883 125.91021973 20.23388672 126.5378418 C24.26414216 131.10463462 28.36404189 135.61205669 32.51220703 140.07202148 C34.86330778 142.60144327 37.0971635 145.17058726 39.23730469 147.87939453 C45.58023796 155.37725497 54.98072547 161.04386813 64.23730469 164.12939453 C73.44681079 165.09033933 73.44681079 165.09033933 81.98730469 162.37939453 C85.24119981 159.12549941 86.53050176 156.4223993 86.61230469 151.81689453 C86.4487514 146.27425518 84.61613193 142.40301566 80.64746094 138.60986328 C69.32079629 129.5341637 56.05511278 125.06310906 42.42480469 120.81689453 C40.76884669 120.28872203 39.11324521 119.7594304 37.45800781 119.22900391 C25.07779159 114.88547217 25.07779159 114.88547217 12.23730469 113.12939453 Z " fill="#182A97" transform="translate(43.7626953125,23.87060546875)"/>
<path d="M0 0 C0.7528125 -0.03738281 1.505625 -0.07476562 2.28125 -0.11328125 C5.48162007 0.50087427 6.59203982 1.70409497 8.5 4.3125 C8.890625 7.328125 8.890625 7.328125 8.75 10.5625 C8.71390625 11.64015625 8.6778125 12.7178125 8.640625 13.828125 C8.59421875 14.64796875 8.5478125 15.4678125 8.5 16.3125 C11.4982096 14.5927148 14.08198345 12.90114002 16.5625 10.5 C26.8750733 1.41403234 38.1391187 -0.43105295 51.32421875 0.13330078 C64.27077916 1.19959065 75.28586205 8.15755637 84.046875 17.359375 C92.24291874 27.22594995 97.12001133 37.98548249 100.5 50.3125 C100.81839844 51.32570312 101.13679687 52.33890625 101.46484375 53.3828125 C107.63898911 76.08773416 104.80875375 102.32672107 93.51171875 122.87890625 C91.10525149 126.98625522 88.66276949 130.75543299 85.5 134.3125 C85.00371094 134.9003125 84.50742187 135.488125 83.99609375 136.09375 C75.19992731 145.7589353 62.45369766 151.4846321 49.5 152.3125 C48.75234375 152.37695312 48.0046875 152.44140625 47.234375 152.5078125 C36.89733528 153.00799184 27.30587762 149.90932094 19.4375 143.18359375 C15.644754 139.52084106 12.42264811 135.69647217 9.5 131.3125 C9.49120064 132.56704735 9.49120064 132.56704735 9.48222351 133.84693909 C9.42420375 141.74751417 9.35207406 149.64780934 9.26428509 157.54811192 C9.21964951 161.60928405 9.18037868 165.67035745 9.15356445 169.73168945 C9.12746306 173.65466002 9.08701316 177.57724924 9.03681374 181.49998283 C9.02019103 182.99296241 9.00864821 184.48600787 9.00238609 185.97906685 C8.99269433 188.07832487 8.96457774 190.17661735 8.93237305 192.27563477 C8.92126999 193.46810318 8.91016693 194.66057159 8.89872742 195.88917542 C8.3431392 200.65924819 7.09839491 204.81400477 3.5 208.1875 C0.00323753 210.15442889 -2.77160344 210.4353703 -6.70581055 210.42602539 C-8.29712044 210.42591209 -8.29712044 210.42591209 -9.920578 210.42579651 C-11.06440445 210.42063522 -12.2082309 210.41547394 -13.38671875 210.41015625 C-14.55886429 210.4087413 -15.73100983 210.40732635 -16.93867493 210.40586853 C-20.68830907 210.40026388 -24.43788385 210.38771056 -28.1875 210.375 C-30.72721268 210.3699856 -33.2669263 210.36542259 -35.80664062 210.36132812 C-42.03778073 210.35029294 -48.26888612 210.33355025 -54.5 210.3125 C-54.5 206.45754584 -54.31555 205.52549911 -52.5625 202.375 C-49.7501539 197.30471295 -49.37478816 192.65610852 -49.35955811 186.90516663 C-49.35384796 185.61118454 -49.34813782 184.31720245 -49.34225464 182.98400879 C-49.34100945 181.557129 -49.33988432 180.13024911 -49.33886719 178.70336914 C-49.33423604 177.19514343 -49.32921098 175.68691888 -49.32382202 174.17869568 C-49.31072773 170.08781071 -49.30425929 165.99694212 -49.29981136 161.90603948 C-49.29687684 159.34926271 -49.2927714 156.79249039 -49.28830719 154.23571587 C-49.27464231 146.23308841 -49.26496978 138.23047116 -49.2611053 130.22783285 C-49.25662187 120.99494585 -49.23905657 111.76220669 -49.2101047 102.52936465 C-49.18848871 95.38782481 -49.17840112 88.24632659 -49.17706418 81.10475439 C-49.17601642 76.84118709 -49.17011446 72.57775897 -49.15224457 68.31422615 C-49.13576447 64.30457725 -49.13360799 60.29517218 -49.14238358 56.28550148 C-49.14315389 54.81574602 -49.13881193 53.34597744 -49.12892532 51.87625504 C-49.11620069 49.86648229 -49.1238762 47.85661151 -49.13250732 45.84681702 C-49.13030748 44.16138086 -49.13030748 44.16138086 -49.1280632 42.44189548 C-49.55680817 38.83452841 -50.65233632 36.42222653 -52.5 33.3125 C-54.21846255 31.9425696 -54.21846255 31.9425696 -56.125 31.1875 C-59.5 29.3125 -59.5 29.3125 -60.625 27.25 C-60.5 25.3125 -60.5 25.3125 -59.22802734 23.8059082 C-57.43677885 22.25786257 -55.89552942 21.41090172 -53.7265625 20.48046875 C-52.99115234 20.16005615 -52.25574219 19.83964355 -51.49804688 19.50952148 C-50.71494141 19.17637939 -49.93183594 18.8432373 -49.125 18.5 C-47.48137888 17.78736165 -45.83815126 17.07381506 -44.1953125 16.359375 C-43.3899707 16.01068359 -42.58462891 15.66199219 -41.75488281 15.30273438 C-38.8089429 14.00902148 -35.90536334 12.632091 -33 11.25 C-27.72060386 8.79572134 -22.35970572 6.61398895 -16.9375 4.5 C-16.16277344 4.19763428 -15.38804687 3.89526855 -14.58984375 3.58374023 C-9.7156589 1.70926004 -5.26635649 0.17133694 0 0 Z M13.5 28.3125 C10.07466419 35.15163851 8.3955832 41.64781679 8.32299805 49.28930664 C8.31016281 50.47146255 8.29732758 51.65361847 8.28410339 52.87159729 C8.27671646 54.14244675 8.26932953 55.4132962 8.26171875 56.72265625 C8.253647 58.04108017 8.24557526 59.35950409 8.23725891 60.71788025 C8.22226623 63.50942858 8.2124139 66.30095184 8.20483398 69.0925293 C8.19381997 72.63722187 8.15946549 76.18127798 8.11966228 79.72574711 C8.09327836 82.47902949 8.0851228 85.23216566 8.08155251 87.98556328 C8.07442271 89.9173929 8.0480758 91.84912166 8.02116394 93.78077698 C8.04373226 103.07033908 9.36310827 111.55963374 14.5625 119.4375 C17.91537994 122.68222252 20.10567786 123.64013967 24.6875 123.75 C30.43353265 123.62839084 34.30564549 122.27879268 38.5 118.3125 C40.20507868 116.03227538 41.26694551 113.92088451 42.5 111.3125 C42.84160156 110.69117188 43.18320312 110.06984375 43.53515625 109.4296875 C51.83573342 91.21546554 48.7366377 61.11841329 43.5 42.3125 C40.59031932 35.13481684 36.6785779 28.8097559 29.5 25.3125 C23.43440009 23.0884467 17.86518144 23.35742918 13.5 28.3125 Z " fill="#182A97" transform="translate(244.5,82.6875)"/>
<path d="M0 0 C1.04470711 -0.00262848 1.04470711 -0.00262848 2.11051941 -0.00531006 C4.42884779 -0.00973189 6.74710042 -0.0067831 9.06542969 -0.00341797 C10.69138605 -0.00409243 12.31734232 -0.00506364 13.94329834 -0.00631714 C17.3699234 -0.00779577 20.79652249 -0.00563983 24.22314453 -0.00097656 C28.54875029 0.00463161 32.87429338 0.00140269 37.19989681 -0.00441265 C101.6550908 -0.07825856 101.6550908 -0.07825856 120.23730469 12.12939453 C121.22730469 13.61439453 121.22730469 13.61439453 122.23730469 15.12939453 C121.57730469 15.45939453 120.91730469 15.78939453 120.23730469 16.12939453 C118.07324219 15.13330078 118.07324219 15.13330078 115.61230469 13.69189453 C114.79503906 13.21880859 113.97777344 12.74572266 113.13574219 12.25830078 C112.50925781 11.88576172 111.88277344 11.51322266 111.23730469 11.12939453 C111.23730469 10.46939453 111.23730469 9.80939453 111.23730469 9.12939453 C110.45355469 9.00564453 109.66980469 8.88189453 108.86230469 8.75439453 C106.23730469 8.12939453 106.23730469 8.12939453 104.23730469 6.12939453 C102.19472402 5.92415258 102.19472402 5.92415258 99.92480469 6.06689453 C96.51110453 6.14323926 93.57043465 5.94015587 90.23730469 5.12939453 C85.8693456 4.13667656 82.37423139 4.35506897 77.95539856 4.93942261 C74.68547806 5.16796258 71.5775892 4.93306968 68.31030273 4.66894531 C60.87019479 4.11509165 53.46841973 3.98400153 46.00683594 3.99658203 C44.08855232 3.99514694 44.08855232 3.99514694 42.1315155 3.99368286 C39.46028086 3.99300862 36.78914077 3.9942916 34.11791992 3.99902344 C30.70078053 4.00478382 27.28371863 4.00138845 23.86658192 3.99545097 C20.57999711 3.99097441 17.29342175 3.9941029 14.00683594 3.99658203 C12.78398392 3.9945578 11.5611319 3.99253357 10.30122375 3.990448 C9.16871689 3.99360016 8.03621002 3.99675232 6.86938477 4 C5.87538162 4.00079559 4.88137848 4.00159119 3.85725403 4.00241089 C1.49356412 4.11697416 -0.50317475 4.45494638 -2.76269531 5.12939453 C-2.16407789 7.48110584 -1.4934518 9.81533233 -0.76269531 12.12939453 C-0.10269531 12.45939453 0.55730469 12.78939453 1.23730469 13.12939453 C0.90730469 12.13939453 0.57730469 11.14939453 0.23730469 10.12939453 C1.22730469 10.45939453 2.21730469 10.78939453 3.23730469 11.12939453 C3.23730469 12.44939453 3.23730469 13.76939453 3.23730469 15.12939453 C2.24730469 15.12939453 1.25730469 15.12939453 0.23730469 15.12939453 C0.23491633 16.03754095 0.23252798 16.94568737 0.23006725 17.88135338 C0.17087786 39.99972023 0.09530247 62.11797849 0.00158978 84.23622704 C-0.04333608 94.93253976 -0.08275818 105.62881943 -0.10913086 116.32519531 C-0.1321369 125.65040744 -0.1655641 134.97551467 -0.21139687 144.30064356 C-0.23529388 149.23618466 -0.25404575 154.1716221 -0.26030922 159.1072197 C-0.26637599 163.75788787 -0.28643328 168.40829093 -0.31697083 173.05886078 C-0.32572557 174.76072724 -0.32947897 176.46262839 -0.32770348 178.16451645 C-0.3209561 187.62103247 -0.4368727 196.4777493 -4.76269531 205.12939453 C27.24730469 205.45939453 59.25730469 205.78939453 92.23730469 206.12939453 C91.90730469 206.78939453 91.57730469 207.44939453 91.23730469 208.12939453 C58.56730469 208.12939453 25.89730469 208.12939453 -7.76269531 208.12939453 C-7.76269531 204.23397971 -7.6606939 203.57444554 -5.82519531 200.50439453 C-1.11428464 191.46914713 -2.61369043 180.06532987 -2.61743164 170.12988281 C-2.61443434 168.53213422 -2.61103051 166.93438635 -2.60725403 165.3366394 C-2.59846918 161.02250994 -2.59607829 156.70840034 -2.59543824 152.39426279 C-2.59472475 149.69285154 -2.59258482 146.99144526 -2.58994102 144.29003525 C-2.58070678 134.84862704 -2.57660384 125.40723289 -2.57739258 115.96582031 C-2.57799327 107.19192166 -2.56743809 98.4180845 -2.55164891 89.6442014 C-2.53853849 82.08718394 -2.53321013 74.5301865 -2.53384799 66.97315776 C-2.53410189 62.47029443 -2.53131045 57.96748585 -2.52066994 53.46463394 C-2.51092943 49.227585 -2.51095022 44.99064251 -2.51818657 40.75358963 C-2.51922496 39.20733991 -2.51691438 37.66108335 -2.51082611 36.11484528 C-2.08694308 19.14221327 -2.08694308 19.14221327 -8.76269531 4.12939453 C-8.76269531 3.13939453 -8.76269531 2.14939453 -8.76269531 1.12939453 C-5.8388764 -0.33251493 -3.26525821 0.0020592 0 0 Z " fill="#202B82" transform="translate(43.7626953125,23.87060546875)"/>
<path d="M0 0 C1.04220703 0.38091797 1.04220703 0.38091797 2.10546875 0.76953125 C15.30110265 5.2349739 28.96492637 6.50255048 42.76171875 7.8984375 C44.33913111 8.06165793 45.91652351 8.22507131 47.49389648 8.38867188 C50.58435536 8.70892259 53.67582733 9.00670848 56.76977539 9.29101562 C71.36964905 10.72411117 86.4849621 13.94990532 99 22 C99.99 23.485 99.99 23.485 101 25 C96.31486863 23.1431406 91.67610386 21.1829188 87.03515625 19.21875 C82.41413008 17.36320281 78.10170308 15.82742755 73.125 15.375 C72.34382813 15.30023438 71.56265625 15.22546875 70.7578125 15.1484375 C70.17773438 15.09945312 69.59765625 15.05046875 69 15 C69 14.67 69 14.34 69 14 C60.75 13.01 52.5 12.02 44 11 C44 10.34 44 9.68 44 9 C42.824375 9.185625 41.64875 9.37125 40.4375 9.5625 C36.38731406 10.08230996 33.00125547 9.7502354 29 9 C29 9.99 29 10.98 29 12 C28.31292969 11.89300781 27.62585938 11.78601563 26.91796875 11.67578125 C26.01691406 11.55589844 25.11585937 11.43601563 24.1875 11.3125 C23.29417969 11.18488281 22.40085938 11.05726563 21.48046875 10.92578125 C18.95435488 10.73375304 18.95435488 10.73375304 17.42578125 12.41796875 C16.95527344 12.94003906 16.48476562 13.46210938 16 14 C13.8125 14.6875 13.8125 14.6875 12 15 C13.45706726 15.50367757 14.91570096 16.00282556 16.375 16.5 C17.18710938 16.7784375 17.99921875 17.056875 18.8359375 17.34375 C20.94209242 18.09673305 20.94209242 18.09673305 23 18 C23 18.99 23 19.98 23 21 C27.29 21.33 31.58 21.66 36 22 C36 22.66 36 23.32 36 24 C36.66 24.33 37.32 24.66 38 25 C38 25.66 38 26.32 38 27 C33.58915236 26.23599637 29.39042271 24.93044109 25.13671875 23.56640625 C24.3859053 23.32840805 23.63509186 23.09040985 22.86152649 22.84519958 C20.46937963 22.08680561 18.07832587 21.32504737 15.6875 20.5625 C12.54646196 19.56097726 9.40439068 18.56278844 6.26171875 17.56640625 C5.55311203 17.3392543 4.84450531 17.11210236 4.11442566 16.87806702 C-0.55352682 15.39814378 -5.23905995 14.14744361 -10 13 C-7.7622639 18.02535957 -4.89780113 21.78544361 -1.3125 25.875 C-0.80138672 26.46796875 -0.29027344 27.0609375 0.23632812 27.671875 C1.48536912 29.11936176 2.74191954 30.56036293 4 32 C2.515 32.495 2.515 32.495 1 33 C-1.50037734 30.82575883 -2.43628586 29.26954202 -3 26 C-3.66 26 -4.32 26 -5 26 C-5 25.34 -5 24.68 -5 24 C-5.99 23.67 -6.98 23.34 -8 23 C-8 22.34 -8 21.68 -8 21 C-8.66 21 -9.32 21 -10 21 C-12.4294516 17.3558226 -12.16179575 15.28758728 -12 11 C-9.29120665 9.64560332 -6.99066732 9.93498549 -4 10 C-3.67 8.68 -3.34 7.36 -3 6 C-2.34 6 -1.68 6 -1 6 C-1.020625 5.195625 -1.04125 4.39125 -1.0625 3.5625 C-1 1 -1 1 0 0 Z M29 20 C31 21 31 21 31 21 Z " fill="#182A93" transform="translate(66,124)"/>
<path d="M0 0 C0.33 0 0.66 0 1 0 C1.33 53.13 1.66 106.26 2 161 C1.34 161 0.68 161 0 161 C-0.33 163.64 -0.66 166.28 -1 169 C24.245 168.505 24.245 168.505 50 168 C50.495 165.03 50.495 165.03 51 162 C52.0625 159.625 52.0625 159.625 53 158 C53.66 158 54.32 158 55 158 C55 134.9 55 111.8 55 88 C54.01 87.505 54.01 87.505 53 87 C54.98 87 56.96 87 59 87 C59 87.66 59 88.32 59 89 C60.485 89.495 60.485 89.495 62 90 C64.12477683 93.59577618 65.39288519 96.87161932 66 101 C63.06077639 98.14021487 60.41317403 95.31192213 58 92 C57.99120064 93.25454735 57.99120064 93.25454735 57.98222351 94.53443909 C57.92420375 102.43501417 57.85207406 110.33530934 57.76428509 118.23561192 C57.71964951 122.29678405 57.68037868 126.35785745 57.65356445 130.41918945 C57.62746306 134.34216002 57.58701316 138.26474924 57.53681374 142.18748283 C57.52019103 143.68046241 57.50864821 145.17350787 57.50238609 146.66656685 C57.49269433 148.76582487 57.46457774 150.86411735 57.43237305 152.96313477 C57.42126999 154.15560318 57.41016693 155.34807159 57.39872742 156.57667542 C56.8431392 161.34674819 55.59839491 165.50150477 52 168.875 C48.50323753 170.84192889 45.72839656 171.1228703 41.79418945 171.11352539 C40.20287956 171.11341209 40.20287956 171.11341209 38.579422 171.11329651 C37.43559555 171.10813522 36.2917691 171.10297394 35.11328125 171.09765625 C33.94113571 171.0962413 32.76899017 171.09482635 31.56132507 171.09336853 C27.81169093 171.08776388 24.06211615 171.07521056 20.3125 171.0625 C17.77278732 171.0574856 15.2330737 171.05292259 12.69335938 171.04882812 C6.46221927 171.03779294 0.23111388 171.02105025 -6 171 C-6 167.14504584 -5.81555 166.21299911 -4.0625 163.0625 C-1.24512344 157.98314369 -0.87464607 153.3129619 -0.84178162 147.55229187 C-0.82709839 145.5983123 -0.82709839 145.5983123 -0.81211853 143.6048584 C-0.80621507 142.1684574 -0.80040458 140.73205601 -0.79467773 139.2956543 C-0.78509386 137.77769202 -0.77508348 136.25973239 -0.76467896 134.74177551 C-0.73767905 130.62651728 -0.71664292 126.51124764 -0.69667697 122.39595008 C-0.67478706 118.09311333 -0.64741309 113.79031156 -0.62062073 109.48750305 C-0.57073445 101.34201624 -0.52578055 93.19650997 -0.48259836 85.05098516 C-0.43319123 75.77653649 -0.378286 66.50212292 -0.32291877 57.22770822 C-0.20916113 38.15183808 -0.10230857 19.07593481 0 0 Z " fill="#222B7A" transform="translate(196,122)"/>
<path d="M0 0 C0.33 0 0.66 0 1 0 C1.07014522 23.03558832 1.12301521 46.07115897 1.15543652 69.1068325 C1.17089179 79.80319163 1.19195573 90.49948431 1.22631836 101.19580078 C1.25626169 110.52095066 1.27558474 119.84605241 1.28226548 129.17124903 C1.28616937 134.10683504 1.29531618 139.04228337 1.31719017 143.97782516 C1.33763328 148.6284232 1.34381803 153.27882754 1.33932304 157.92946625 C1.34014475 159.6313622 1.34606362 161.33326498 1.35761642 163.03512192 C1.41873104 172.50684358 1.33438787 181.33122426 -3 190 C29.01 190.33 61.02 190.66 94 191 C93.67 191.66 93.34 192.32 93 193 C60.33 193 27.66 193 -6 193 C-6 189.10458518 -5.89799858 188.44505101 -4.0625 185.375 C0.73002013 176.17056913 -0.83147799 164.31024219 -0.79467773 154.16748047 C-0.78508298 152.48129546 -0.77507201 150.79511277 -0.76467896 149.1089325 C-0.73779668 144.55803189 -0.71669754 140.00712109 -0.69667697 135.45618582 C-0.67471373 130.69026456 -0.64737592 125.92437412 -0.62062073 121.15847778 C-0.57083293 112.14546405 -0.52584286 103.13243308 -0.48259836 94.11938584 C-0.4331066 83.85330713 -0.37823298 73.58725936 -0.32291877 63.32121062 C-0.20931249 42.21416928 -0.10242748 21.10709836 0 0 Z " fill="#262F7B" transform="translate(42,39)"/>
<path d="M0 0 C0.7528125 -0.03738281 1.505625 -0.07476562 2.28125 -0.11328125 C5.48162007 0.50087427 6.59203982 1.70409497 8.5 4.3125 C8.890625 7.328125 8.890625 7.328125 8.75 10.5625 C8.71390625 11.64015625 8.6778125 12.7178125 8.640625 13.828125 C8.59421875 14.64796875 8.5478125 15.4678125 8.5 16.3125 C11.4982096 14.5927148 14.08198345 12.90114002 16.5625 10.5 C23.04160746 4.79153528 31.83541704 0.14837437 40.609375 0.21484375 C41.36347656 0.21806641 42.11757813 0.22128906 42.89453125 0.22460938 C43.67183594 0.23298828 44.44914062 0.24136719 45.25 0.25 C46.04277344 0.25451172 46.83554687 0.25902344 47.65234375 0.26367188 C49.60159508 0.27541435 51.55080738 0.29334854 53.5 0.3125 C53.5 0.9725 53.5 1.6325 53.5 2.3125 C52.38625 2.291875 51.2725 2.27125 50.125 2.25 C37.90234158 2.31064163 26.26494131 4.71839054 17.1796875 13.57421875 C16.62539063 14.14785156 16.07109375 14.72148438 15.5 15.3125 C14.84 15.3125 14.18 15.3125 13.5 15.3125 C14.49 16.6325 15.48 17.9525 16.5 19.3125 C15.02031676 19.17200482 13.54125484 19.02495174 12.0625 18.875 C10.82693359 18.75318359 10.82693359 18.75318359 9.56640625 18.62890625 C7.5 18.3125 7.5 18.3125 6.5 17.3125 C6.42755947 15.29285801 6.41622812 13.27082876 6.4375 11.25 C6.44652344 10.14527344 6.45554687 9.04054688 6.46484375 7.90234375 C6.47644531 7.04769531 6.48804688 6.19304687 6.5 5.3125 C5.84 5.3125 5.18 5.3125 4.5 5.3125 C4.005 4.3225 4.005 4.3225 3.5 3.3125 C1.37423218 2.84598793 1.37423218 2.84598793 -1.0625 2.6875 C-1.88878906 2.61273438 -2.71507812 2.53796875 -3.56640625 2.4609375 C-4.20449219 2.41195312 -4.84257812 2.36296875 -5.5 2.3125 C-5.5 2.9725 -5.5 3.6325 -5.5 4.3125 C-7.51822917 4.73567708 -9.53645833 5.15885417 -11.5546875 5.58203125 C-13.87046549 6.23558838 -13.87046549 6.23558838 -15.5 9.3125 C-18.1015625 10.04296875 -18.1015625 10.04296875 -21.125 10.5 C-22.12789062 10.65855469 -23.13078125 10.81710938 -24.1640625 10.98046875 C-25.32035156 11.14482422 -25.32035156 11.14482422 -26.5 11.3125 C-26.5 11.6425 -26.5 11.9725 -26.5 12.3125 C-27.09167969 12.50585938 -27.68335938 12.69921875 -28.29296875 12.8984375 C-34.49044218 14.86385641 -34.49044218 14.86385641 -40.5 17.3125 C-40.83 17.9725 -41.16 18.6325 -41.5 19.3125 C-42.49 19.3125 -43.48 19.3125 -44.5 19.3125 C-45.098125 19.8075 -45.69625 20.3025 -46.3125 20.8125 C-49.1578265 22.76358103 -51.123893 22.54268911 -54.5 22.3125 C-54.83 23.6325 -55.16 24.9525 -55.5 26.3125 C-53.85 26.6425 -52.2 26.9725 -50.5 27.3125 C-50.83 27.9725 -51.16 28.6325 -51.5 29.3125 C-51.10061233 31.41071215 -51.10061233 31.41071215 -50.5 33.3125 C-49.51 33.3125 -48.52 33.3125 -47.5 33.3125 C-47.83 35.2925 -48.16 37.2725 -48.5 39.3125 C-49.16 38.3225 -49.82 37.3325 -50.5 36.3125 C-52.62416534 33.96859342 -54.41288482 32.36112243 -57.1875 30.8125 C-59.5 29.3125 -59.5 29.3125 -60.5 27.3125 C-60.5 25.3125 -60.5 25.3125 -59.23583984 23.80200195 C-57.44104482 22.26191131 -55.89338236 21.40998069 -53.7265625 20.48046875 C-52.99115234 20.16005615 -52.25574219 19.83964355 -51.49804688 19.50952148 C-50.71494141 19.17637939 -49.93183594 18.8432373 -49.125 18.5 C-47.48137888 17.78736165 -45.83815126 17.07381506 -44.1953125 16.359375 C-43.3899707 16.01068359 -42.58462891 15.66199219 -41.75488281 15.30273438 C-38.8089429 14.00902148 -35.90536334 12.632091 -33 11.25 C-27.72060386 8.79572134 -22.35970572 6.61398895 -16.9375 4.5 C-16.16277344 4.19763428 -15.38804687 3.89526855 -14.58984375 3.58374023 C-9.7156589 1.70926004 -5.26635649 0.17133694 0 0 Z " fill="#1D2777" transform="translate(244.5,82.6875)"/>
<path d="M0 0 C1 3 1 3 0.08349609 6.33105469 C-1.55074374 12.37380974 -1.32490989 18.48305594 -1.3359375 24.703125 C-1.3425943 26.01730408 -1.3492511 27.33148315 -1.35610962 28.68548584 C-1.36803015 31.45913987 -1.37179597 34.23266986 -1.37060547 37.00634766 C-1.3704028 40.5274608 -1.39767351 44.04776218 -1.43214989 47.56868362 C-1.45999362 50.96767303 -1.45857402 54.36652349 -1.4609375 57.765625 C-1.47530853 59.01289368 -1.48967957 60.26016235 -1.50448608 61.54522705 C-1.45948167 70.28197558 -0.80255919 80.59874547 5.6875 87.1875 C6.450625 87.785625 7.21375 88.38375 8 89 C8.33 89.33 8.66 89.66 9 90 C15.7383579 90.60621905 21.01972541 90.18947978 27 87 C27 87.66 27 88.32 27 89 C26.34 89 25.68 89 25 89 C24.67 90.32 24.34 91.64 24 93 C21.24973583 93.05404449 18.50053797 93.09369306 15.75 93.125 C14.97269531 93.14175781 14.19539063 93.15851563 13.39453125 93.17578125 C6.27568856 93.23662606 6.27568856 93.23662606 3 91 C3 90.34 3 89.68 3 89 C2.34 89 1.68 89 1 89 C1 87.02 1 85.04 1 83 C0.34 83 -0.32 83 -1 83 C-3.32004139 77.58657009 -4.12490631 72.87196457 -4.12939453 66.99145508 C-4.13254669 65.80284378 -4.13569885 64.61423248 -4.13894653 63.38960266 C-4.1369223 62.1124791 -4.13489807 60.83535553 -4.1328125 59.51953125 C-4.13348712 58.18299848 -4.13445846 56.84646583 -4.13571167 55.50993347 C-4.13718374 52.70997956 -4.13505156 49.91005761 -4.13037109 47.11010742 C-4.12470177 43.5475421 -4.12793809 39.9850526 -4.13394356 36.42249012 C-4.13758613 33.6607152 -4.13639327 30.89895773 -4.13381577 28.13718224 C-4.13283699 26.19316432 -4.13584067 24.24914569 -4.13894653 22.30513 C-4.0964743 6.07741275 -4.0964743 6.07741275 -3 2 C-2.01 1.34 -1.02 0.68 0 0 Z " fill="#202876" transform="translate(255,115)"/>
<path d="M0 0 C3.3 0 6.6 0 10 0 C10 0.66 10 1.32 10 2 C11.53720703 1.98259766 11.53720703 1.98259766 13.10546875 1.96484375 C14.466144 1.95545978 15.82682124 1.94636023 17.1875 1.9375 C17.86103516 1.92912109 18.53457031 1.92074219 19.22851562 1.91210938 C22.96807109 1.89386764 26.3660234 2.13245634 30 3 C31.30710937 3.2475 31.30710937 3.2475 32.640625 3.5 C33.50171875 3.665 34.3628125 3.83 35.25 4 C36.55710937 4.2475 36.55710937 4.2475 37.890625 4.5 C40 5 40 5 41 6 C43.85528607 6.400383 46.69736487 6.7518227 49.5625 7.0625 C50.36880859 7.15337891 51.17511719 7.24425781 52.00585938 7.33789062 C54.00347377 7.56247449 56.0016856 7.78173236 58 8 C58 8.33 58 8.66 58 9 C61.55055809 9.20606016 61.55055809 9.20606016 64.84765625 8.0546875 C68.04888247 6.48602855 71.36051029 6.13561178 74.85546875 5.5625 C75.56316406 5.376875 76.27085937 5.19125 77 5 C77.33 4.34 77.66 3.68 78 3 C78 3.66 78 4.32 78 5 C78.66 4.67 79.32 4.34 80 4 C82.6723621 3.86584528 85.32250488 3.95681459 88 4 C69.60018836 16.26654109 45.18004811 10.39615824 25.13720703 6.43408203 C21.8153738 5.74998053 18.49814478 5.05065564 15.18896484 4.30761719 C10.46941667 3.25402106 5.80756823 2.53537599 1 2 C0.67 2.99 0.34 3.98 0 5 C0 3.35 0 1.7 0 0 Z " fill="#172474" transform="translate(65,119)"/>
<path d="M0 0 C0.66 0 1.32 0 2 0 C3.24010558 3.72031673 3.25137653 7.25229634 3.3515625 11.1328125 C3.37471527 11.9252536 3.39786804 12.7176947 3.42172241 13.53414917 C3.46929421 15.20678503 3.51453637 16.87948854 3.55761719 18.55224609 C3.62493007 21.12232988 3.70261899 23.69195916 3.78125 26.26171875 C3.82614597 27.8853995 3.8704377 29.5090971 3.9140625 31.1328125 C3.93796051 31.90569611 3.96185852 32.67857971 3.98648071 33.47488403 C4.03016402 35.31607674 4.02054222 37.15840373 4 39 C3.505 39.495 3.505 39.495 3 40 C2.95936168 41.66617115 2.957279 43.33388095 3 45 C3.66 45 4.32 45 5 45 C4.505 47.475 4.505 47.475 4 50 C2.68 50 1.36 50 0 50 C-0.66 51.32 -1.32 52.64 -2 54 C-2.66 54 -3.32 54 -4 54 C-3.938125 54.763125 -3.87625 55.52625 -3.8125 56.3125 C-4 59 -4 59 -5.5 60.8125 C-6.2425 61.4003125 -6.2425 61.4003125 -7 62 C-7.66 61.34 -8.32 60.68 -9 60 C-8.0234375 58.30729167 -7.046875 56.61458333 -6.0703125 54.921875 C-5.71710938 54.28765625 -5.36390625 53.6534375 -5 53 C-4.64808594 52.37222656 -4.29617188 51.74445313 -3.93359375 51.09765625 C2.47933114 36.68869949 0.26733079 15.47548256 0 0 Z " fill="#19278A" transform="translate(291,141)"/>
<path d="M0 0 C0.69480469 0.25394531 1.38960938 0.50789063 2.10546875 0.76953125 C15.30110265 5.2349739 28.96492637 6.50255048 42.76171875 7.8984375 C44.33913111 8.06165793 45.91652351 8.22507131 47.49389648 8.38867188 C50.58435536 8.70892259 53.67582733 9.00670848 56.76977539 9.29101562 C71.36964905 10.72411117 86.4849621 13.94990532 99 22 C99.99 23.485 99.99 23.485 101 25 C96.31486863 23.1431406 91.67610386 21.1829188 87.03515625 19.21875 C82.41413008 17.36320281 78.10170308 15.82742755 73.125 15.375 C72.34382813 15.30023438 71.56265625 15.22546875 70.7578125 15.1484375 C70.17773438 15.09945312 69.59765625 15.05046875 69 15 C69 14.67 69 14.34 69 14 C60.75 13.01 52.5 12.02 44 11 C44 10.34 44 9.68 44 9 C42.948125 9.20625 41.89625 9.4125 40.8125 9.625 C35.83507839 10.25705354 31.29656992 9.39443727 26.38671875 8.5390625 C23.10342789 8.01646257 19.87818623 7.7224187 16.5625 7.5 C12.40396898 7.19317821 8.9001478 6.56005912 5 5 C3.67088318 4.65023242 2.33917261 4.30903983 1 4 C1 3.34 1 2.68 1 2 C0.34 1.67 -0.32 1.34 -1 1 C-0.67 0.67 -0.34 0.34 0 0 Z " fill="#1C2573" transform="translate(66,124)"/>
<path d="M0 0 C1.60875 0.25716797 1.60875 0.25716797 3.25 0.51953125 C6 1.1875 6 1.1875 8 3.1875 C9.98821313 3.58514263 11.99124558 3.91178861 14 4.1875 C17.81433074 4.85500788 21.32914771 5.96388257 25 7.1875 C25.66 7.1875 26.32 7.1875 27 7.1875 C27 8.1775 27 9.1675 27 10.1875 C31.29 10.5175 35.58 10.8475 40 11.1875 C40 11.8475 40 12.5075 40 13.1875 C40.66 13.5175 41.32 13.8475 42 14.1875 C42 14.8475 42 15.5075 42 16.1875 C37.58915236 15.42349637 33.39042271 14.11794109 29.13671875 12.75390625 C28.3859053 12.51590805 27.63509186 12.27790985 26.86152649 12.03269958 C24.46937963 11.27430561 22.07832587 10.51254737 19.6875 9.75 C16.54646196 8.74847726 13.40439068 7.75028844 10.26171875 6.75390625 C9.55311203 6.5267543 8.84450531 6.29960236 8.11442566 6.06556702 C3.44647318 4.58564378 -1.23905995 3.33494361 -6 2.1875 C-3.7622639 7.21285957 -0.89780113 10.97294361 2.6875 15.0625 C3.19861328 15.65546875 3.70972656 16.2484375 4.23632812 16.859375 C5.48536912 18.30686176 6.74191954 19.74786293 8 21.1875 C7.01 21.5175 6.02 21.8475 5 22.1875 C2.49962266 20.01325883 1.56371414 18.45704202 1 15.1875 C0.34 15.1875 -0.32 15.1875 -1 15.1875 C-1 14.5275 -1 13.8675 -1 13.1875 C-1.99 12.8575 -2.98 12.5275 -4 12.1875 C-4 11.5275 -4 10.8675 -4 10.1875 C-4.66 10.1875 -5.32 10.1875 -6 10.1875 C-8.4294516 6.5433226 -8.16179575 4.47508728 -8 0.1875 C-5.12572395 -1.24963802 -3.14069495 -0.52470745 0 0 Z M33 9.1875 C35 10.1875 35 10.1875 35 10.1875 Z " fill="#192375" transform="translate(62,134.8125)"/>
<path d="M0 0 C1.09771477 -0.00021904 1.09771477 -0.00021904 2.21760559 -0.0004425 C4.64168235 0.00025536 7.06568272 0.00804185 9.48974609 0.01586914 C11.16840574 0.01773377 12.84706593 0.01915746 14.52572632 0.02015686 C18.94805397 0.02397851 23.37034888 0.0338058 27.79266357 0.04486084 C32.30366574 0.05508253 36.81467319 0.05965611 41.32568359 0.06469727 C50.17986466 0.07542837 59.03402141 0.09250058 67.88818359 0.11352539 C67.88818359 0.44352539 67.88818359 0.77352539 67.88818359 1.11352539 C45.77818359 1.44352539 23.66818359 1.77352539 0.88818359 2.11352539 C0.55818359 3.10352539 0.22818359 4.09352539 -0.11181641 5.11352539 C-1.10181641 5.11352539 -2.09181641 5.11352539 -3.11181641 5.11352539 C-2.51319898 7.4652367 -1.84257289 9.79946319 -1.11181641 12.11352539 C-0.45181641 12.44352539 0.20818359 12.77352539 0.88818359 13.11352539 C0.55818359 12.12352539 0.22818359 11.13352539 -0.11181641 10.11352539 C0.87818359 10.44352539 1.86818359 10.77352539 2.88818359 11.11352539 C2.88818359 12.43352539 2.88818359 13.75352539 2.88818359 15.11352539 C1.23818359 15.11352539 -0.41181641 15.11352539 -2.11181641 15.11352539 C-2.11181641 17.42352539 -2.11181641 19.73352539 -2.11181641 22.11352539 C-2.44181641 22.11352539 -2.77181641 22.11352539 -3.11181641 22.11352539 C-3.25876953 20.91856445 -3.25876953 20.91856445 -3.40869141 19.69946289 C-4.30122357 13.3747953 -5.22566454 9.16552282 -9.11181641 4.11352539 C-9.11181641 3.12352539 -9.11181641 2.13352539 -9.11181641 1.11352539 C-6.1747364 -0.35501461 -3.21837936 -0.0166701 0 0 Z " fill="#0C125C" transform="translate(44.11181640625,23.886474609375)"/>
<path d="M0 0 C5.5966714 4.69863817 6.67391541 13.02373706 7.4296875 19.921875 C8.07385731 32.69141065 4.69115129 44.04661374 -3.81640625 53.80859375 C-8.67671533 58.68629213 -13.49228926 62.62941535 -20 65 C-19.34 62.69 -18.68 60.38 -18 58 C-17.01 58.33 -16.02 58.66 -15 59 C-13.515 58.505 -13.515 58.505 -12 58 C-11.67 57.01 -11.34 56.02 -11 55 C-10.360625 54.855625 -9.72125 54.71125 -9.0625 54.5625 C-6.79688294 54.19895007 -6.79688294 54.19895007 -5.75 51.9375 C-5.37875 50.9784375 -5.37875 50.9784375 -5 50 C-4.34 50 -3.68 50 -3 50 C-2.34 48.02 -1.68 46.04 -1 44 C-0.34 44 0.32 44 1 44 C1.12375 42.88625 1.2475 41.7725 1.375 40.625 C2 37 2 37 4 35 C4.29435653 32.65701022 4.29435653 32.65701022 4.23046875 29.94921875 C4.22853516 28.94052734 4.22660156 27.93183594 4.22460938 26.89257812 C4.21236328 25.83490234 4.20011719 24.77722656 4.1875 23.6875 C4.18685547 22.64142578 4.18621094 21.59535156 4.18554688 20.51757812 C4.158852 15.85784001 4.03371034 11.56018352 3 7 C2.34 7 1.68 7 1 7 C1 6.01 1 5.02 1 4 C0.34 3.67 -0.32 3.34 -1 3 C-0.67 2.01 -0.34 1.02 0 0 Z " fill="#222C76" transform="translate(178,161)"/>
<path d="M0 0 C4.75 1.875 4.75 1.875 7 3 C9.18914591 8.53047388 9.3295017 13.20250079 8 19 C6.30151521 22.72049049 4.56938883 25.00451491 1 27 C-2.13106813 27.4233128 -5.22065671 27.37260563 -8.375 27.3125 C-9.63183594 27.31733398 -9.63183594 27.31733398 -10.9140625 27.32226562 C-15.66140981 27.28121152 -19.54237338 26.82225453 -24 25 C-24 24.34 -24 23.68 -24 23 C-25.051875 22.7525 -26.10375 22.505 -27.1875 22.25 C-30.8133541 21.23299214 -33.19910772 19.54626571 -36 17 C-35.505 15.515 -35.505 15.515 -35 14 C-34.5153125 14.38671875 -34.030625 14.7734375 -33.53125 15.171875 C-25.86929078 21.12462793 -18.99548827 25.12479296 -9.125 25.25 C-7.91070312 25.27578125 -6.69640625 25.3015625 -5.4453125 25.328125 C-1.71353819 24.97271792 0.08510788 24.31937653 3 22 C5.70991469 17.96797542 5.67160897 13.69336147 5 9 C3.91070319 6.38765922 2.59640231 4.37041555 1 2 C0.505 1.01 0.505 1.01 0 0 Z " fill="#1D2671" transform="translate(124,162)"/>
<path d="M0 0 C0.66 0 1.32 0 2 0 C0.6077668 17.2636917 -6.52838414 32.92196571 -19 45 C-19.58136719 45.58136719 -20.16273438 46.16273438 -20.76171875 46.76171875 C-21.17035156 47.17035156 -21.57898438 47.57898438 -22 48 C-22.66 47.67 -23.32 47.34 -24 47 C-23.67 46.01 -23.34 45.02 -23 44 C-21.515 43.505 -21.515 43.505 -20 43 C-18.3654418 41.2469578 -18.3654418 41.2469578 -16.875 39.125 C-16.35679687 38.42632812 -15.83859375 37.72765625 -15.3046875 37.0078125 C-13.83902639 34.9366622 -13.83902639 34.9366622 -13 32 C-12.01 32 -11.02 32 -10 32 C-9.87625 31.05125 -9.7525 30.1025 -9.625 29.125 C-9 26 -9 26 -7 24 C-6.60235737 22.01178687 -6.26224651 20.01055661 -6 18 C-5.34 18 -4.68 18 -4 18 C-4 17.34 -4 16.68 -4 16 C-3.34 16 -2.68 16 -2 16 C-2.02320313 15.34773437 -2.04640625 14.69546875 -2.0703125 14.0234375 C-2.17583753 8.91301097 -2.01926302 4.79574967 0 0 Z " fill="#1D2777" transform="translate(345,176)"/>
<path d="M0 0 C5.24546134 6.03228054 7.81074154 14.43175704 10 22 C10.28101563 22.90105469 10.56203125 23.80210937 10.8515625 24.73046875 C14.17199738 37.22088969 13.27039913 50.18446774 13 63 C12.67 63 12.34 63 12 63 C11.98018066 62.33991943 11.96036133 61.67983887 11.93994141 60.99975586 C11.84406648 57.97863636 11.73464247 54.95814992 11.625 51.9375 C11.5940625 50.89916016 11.563125 49.86082031 11.53125 48.79101562 C11.31754094 43.18115276 10.70583645 38.38404629 9 33 C8.73227983 30.8607643 8.52001395 28.71354031 8.375 26.5625 C8.30023438 25.51191406 8.22546875 24.46132812 8.1484375 23.37890625 C8.07496094 22.20134766 8.07496094 22.20134766 8 21 C7.34 21 6.68 21 6 21 C5.49242138 19.58603098 4.99425075 18.16868271 4.5 16.75 C4.2215625 15.96109375 3.943125 15.1721875 3.65625 14.359375 C3 12 3 12 3 8 C2.505 7.525625 2.01 7.05125 1.5 6.5625 C0 5 0 5 -0.1875 2.3125 C-0.125625 1.549375 -0.06375 0.78625 0 0 Z " fill="#1C2473" transform="translate(335,111)"/>
<path d="M0 0 C0.8971875 0.309375 0.8971875 0.309375 1.8125 0.625 C0.4375 2.125 0.4375 2.125 -1.1875 3.625 C-1.8475 3.625 -2.5075 3.625 -3.1875 3.625 C-3.47625 4.2025 -3.765 4.78 -4.0625 5.375 C-4.75562771 6.76125542 -5.47345085 8.13585601 -6.23046875 9.48828125 C-7.86661227 13.14122208 -7.87215616 16.71267908 -7.1875 20.625 C-3.53209767 25.53368312 0.25982884 27.14336393 6.125 28.25 C7.011875 28.37375 7.89875 28.4975 8.8125 28.625 C8.8125 28.955 8.8125 29.285 8.8125 29.625 C-1.16129913 30.4110262 -1.16129913 30.4110262 -5.125 27.375 C-5.805625 26.4675 -6.48625 25.56 -7.1875 24.625 C-7.950625 24.00625 -8.71375 23.3875 -9.5 22.75 C-11.96513111 19.64576082 -11.58792858 17.49580963 -11.1875 13.625 C-9.92933449 8.48749083 -6.59229105 -1.13010704 0 0 Z " fill="#1E2770" transform="translate(64.1875,79.375)"/>
<path d="M0 0 C0.91136719 -0.020625 1.82273437 -0.04125 2.76171875 -0.0625 C3.64214844 -0.06765625 4.52257812 -0.0728125 5.4296875 -0.078125 C6.23390137 -0.0874707 7.03811523 -0.09681641 7.86669922 -0.10644531 C10.64873407 0.33266505 11.95975952 1.50305106 14.125 3.25 C14.95 3.37375 15.775 3.4975 16.625 3.625 C20.14789458 4.50572365 21.25233221 6.22492126 23.125 9.25 C22.795 10.24 22.465 11.23 22.125 12.25 C22.40269908 14.5906065 22.73039977 16.92624308 23.125 19.25 C22.465 19.25 21.805 19.25 21.125 19.25 C20.898125 18.033125 20.67125 16.81625 20.4375 15.5625 C19.30165788 11.1891215 17.86173358 8.97470157 14.125 6.25 C6.17710856 2.4448319 -2.28161892 2.94063828 -10.875 3.25 C-11.205 2.59 -11.535 1.93 -11.875 1.25 C-8.2457059 -0.56464705 -3.99592113 0.02241751 0 0 Z " fill="#192578" transform="translate(107.875,65.75)"/>
<path d="M0 0 C0.33 0 0.66 0 1 0 C3.66076106 11.84467826 2.31547476 25.47420873 -4 36 C-4.33 36 -4.66 36 -5 36 C-4.88512252 34.41590006 -4.75765492 32.83271037 -4.625 31.25 C-4.55539063 30.36828125 -4.48578125 29.4865625 -4.4140625 28.578125 C-4 26 -4 26 -2.98193359 24.10058594 C-1.89279747 21.77066869 -1.79139374 20.36249093 -1.875 17.8125 C-1.89046875 17.03132813 -1.9059375 16.25015625 -1.921875 15.4453125 C-1.94765625 14.63835937 -1.9734375 13.83140625 -2 13 C-2.05124247 11.39611066 -2.09322984 9.79189318 -2.125 8.1875 C-2.14820313 7.47980469 -2.17140625 6.77210937 -2.1953125 6.04296875 C-1.96714834 3.65637162 -1.18032312 2.06788894 0 0 Z " fill="#1D2675" transform="translate(181,65)"/>
<path d="M0 0 C13.22672162 0.65906345 23.80270775 3.838941 35 11 C35.66 11.99 36.32 12.98 37 14 C36.34 14.33 35.68 14.66 35 15 C32.8359375 14.00390625 32.8359375 14.00390625 30.375 12.5625 C29.55773437 12.08941406 28.74046875 11.61632813 27.8984375 11.12890625 C27.27195313 10.75636719 26.64546875 10.38382813 26 10 C26 9.34 26 8.68 26 8 C24.824375 7.814375 24.824375 7.814375 23.625 7.625 C21 7 21 7 19 5 C16.95741934 4.79475805 16.95741934 4.79475805 14.6875 4.9375 C9.62024557 5.0430678 5.41939665 4.68320511 1 2 C0.67 1.34 0.34 0.68 0 0 Z " fill="#161E6C" transform="translate(129,25)"/>
<path d="M0 0 C0.94552734 0.16242188 0.94552734 0.16242188 1.91015625 0.328125 C4.49473534 1.1590551 5.46136185 2.24024674 7.1875 4.3125 C7.69667969 4.90675781 8.20585937 5.50101562 8.73046875 6.11328125 C10.0611766 8.09091784 10.57327387 9.67100075 11 12 C10.29875 11.2575 9.5975 10.515 8.875 9.75 C3.65625051 4.75815266 -0.39088418 2.39372173 -7.4375 1.625 C-11.95610418 2.10064255 -13.14876614 3.57851937 -16 7 C-16.66 7.66 -17.32 8.32 -18 9 C-18.08226668 5.95613276 -17.97608217 3.92824652 -17 1 C-11.87862424 -1.94867089 -5.54433281 -1.78210697 0 0 Z " fill="#1B2574" transform="translate(274,106)"/>
<path d="M0 0 C0.99 0.33 1.98 0.66 3 1 C-1.95239814 9.38994509 -8.22621484 16.4744203 -17 21 C-17.66 20.67 -18.32 20.34 -19 20 C-18.34 18.02 -17.68 16.04 -17 14 C-16.01 14.33 -15.02 14.66 -14 15 C-13.01 14.67 -12.02 14.34 -11 14 C-10.67 13.01 -10.34 12.02 -10 11 C-9.360625 10.855625 -8.72125 10.71125 -8.0625 10.5625 C-5.79688294 10.19895007 -5.79688294 10.19895007 -4.75 7.9375 C-4.37875 6.9784375 -4.37875 6.9784375 -4 6 C-3.34 6 -2.68 6 -2 6 C-1.34 4.02 -0.68 2.04 0 0 Z " fill="#192478" transform="translate(177,205)"/>
<path d="M0 0 C0.66 0 1.32 0 2 0 C5.43557152 10.30671456 2.55051276 23.46481957 1 34 C0.67 34 0.34 34 0 34 C0 22.78 0 11.56 0 0 Z " fill="#1A2473" transform="translate(291,141)"/>
<path d="M0 0 C0.99 0 1.98 0 3 0 C3 0.66 3 1.32 3 2 C29.73 1.505 29.73 1.505 57 1 C53.67424478 3.21717015 52.6639376 3.24543438 48.79418945 3.22705078 C47.73331619 3.22689972 46.67244293 3.22674866 45.579422 3.22659302 C44.43559555 3.21627045 43.2917691 3.20594788 42.11328125 3.1953125 C40.94113571 3.1924826 39.76899017 3.18965271 38.56132507 3.18673706 C34.81161357 3.17552753 31.06213951 3.15042128 27.3125 3.125 C24.7727899 3.11497121 22.23307607 3.10584519 19.69335938 3.09765625 C13.46215835 3.07558567 7.23109614 3.04210039 1 3 C0.67 2.01 0.34 1.02 0 0 Z " fill="#232968" transform="translate(189,290)"/>
<path d="M0 0 C-7.45493724 4.96995816 -18.4866078 4.88214275 -27.125 3.5 C-27.74375 3.335 -28.3625 3.17 -29 3 C-29 2.67 -29 2.34 -29 2 C-25.06459604 1.4476626 -21.41539455 0.99271238 -17.4375 1.0625 C-13.93878439 1.15536709 -13.93878439 1.15536709 -10.5 -0.0625 C-6.59160595 -1.10939126 -3.92975275 -0.80199036 0 0 Z " fill="#1B2378" transform="translate(308,231)"/>
<path d="M0 0 C1.32 0.33 2.64 0.66 4 1 C4 1.66 4 2.32 4 3 C8.9600338 3.94288183 13.84514574 4.30248211 18.875 4.5625 C19.65875 4.60568359 20.4425 4.64886719 21.25 4.69335938 C23.16650649 4.79853351 25.08323333 4.89967925 27 5 C26.360625 5.309375 25.72125 5.61875 25.0625 5.9375 C23.06389179 6.8345163 23.06389179 6.8345163 22 8 C19.39691894 7.98811379 16.84555412 7.90079804 14.25 7.75 C13.53328125 7.72292969 12.8165625 7.69585937 12.078125 7.66796875 C7.62135401 7.41399834 4.54313524 6.76786189 1 4 C0.1875 1.8125 0.1875 1.8125 0 0 Z " fill="#1D2B8A" transform="translate(96,184)"/>
<path d="M0 0 C0.66 0.33 1.32 0.66 2 1 C1.67 2.65 1.34 4.3 1 6 C0.34 6 -0.32 6 -1 6 C-1.11214844 6.59425781 -1.22429687 7.18851562 -1.33984375 7.80078125 C-2.45337149 11.51034406 -4.84766089 13.82898607 -8 16 C-10.77232093 16.77147171 -13.09246537 16.89974019 -16 17 C-13.71661471 14.57800666 -11.25788852 12.69540689 -8.5625 10.75 C-4.38408122 7.55834135 -2.22186315 4.73353454 0 0 Z " fill="#1F2A7A" transform="translate(128,85)"/>
<path d="M0 0 C0.69480469 0.25394531 1.38960938 0.50789063 2.10546875 0.76953125 C12.53646832 4.29941323 23.10584068 5.65889515 34 7 C30.99156204 8.75867455 29.11808028 9.21031022 25.6640625 8.828125 C24.84679687 8.74046875 24.02953125 8.6528125 23.1875 8.5625 C21.9190625 8.4078125 21.9190625 8.4078125 20.625 8.25 C19.78710938 8.16234375 18.94921875 8.0746875 18.0859375 7.984375 C13.47975983 7.46292092 9.36303626 6.64617626 5 5 C3.67088318 4.65023242 2.33917261 4.30903983 1 4 C1 3.34 1 2.68 1 2 C0.34 1.67 -0.32 1.34 -1 1 C-0.67 0.67 -0.34 0.34 0 0 Z " fill="#0E1868" transform="translate(66,124)"/>
<path d="M0 0 C0 0.66 0 1.32 0 2 C-1.7015625 2.2165625 -1.7015625 2.2165625 -3.4375 2.4375 C-6.80777201 2.61171478 -6.80777201 2.61171478 -8 4 C-10.86267567 4.07325168 -13.700719 4.09238205 -16.5625 4.0625 C-17.36880859 4.05798828 -18.17511719 4.05347656 -19.00585938 4.04882812 C-21.00393756 4.03700518 -23.00197783 4.01906914 -25 4 C-24.67 3.34 -24.34 2.68 -24 2 C-21.08563482 1.5177455 -18.24725387 1.15537586 -15.3125 0.875 C-14.50876953 0.78863281 -13.70503906 0.70226562 -12.87695312 0.61328125 C-8.56607157 0.16915118 -4.33974909 -0.09815265 0 0 Z " fill="#1D2881" transform="translate(97,107)"/>
<path d="M0 0 C0.66 0 1.32 0 2 0 C1.24951087 9.30606525 -1.12937876 17.52149633 -5 26 C-5.33 26 -5.66 26 -6 26 C-6 23.36 -6 20.72 -6 18 C-5.34 18 -4.68 18 -4 18 C-4 17.34 -4 16.68 -4 16 C-3.34 16 -2.68 16 -2 16 C-2.02320313 15.34773437 -2.04640625 14.69546875 -2.0703125 14.0234375 C-2.17583753 8.91301097 -2.01926302 4.79574967 0 0 Z " fill="#1C2473" transform="translate(345,176)"/>
<path d="M0 0 C2.21498524 4.2823048 3.1378248 7.72126947 3.31640625 12.54296875 C3.35830078 13.61611328 3.40019531 14.68925781 3.44335938 15.79492188 C3.48267578 16.91447266 3.52199219 18.03402344 3.5625 19.1875 C3.60568359 20.31865234 3.64886719 21.44980469 3.69335938 22.61523438 C3.79949099 25.41003354 3.90154385 28.20492162 4 31 C3.01 31.33 2.02 31.66 1 32 C1.01160156 31.11441406 1.02320313 30.22882813 1.03515625 29.31640625 C1.10662165 19.50522798 0.67082786 9.78689931 0 0 Z " fill="#1A2684" transform="translate(344,144)"/>
<path d="M0 0 C5.9470216 5.247372 10.80663839 12.04425593 12 20 C8.90169371 18.93161852 8.03365395 18.05608991 6.3125 15.1875 C5.16502866 12.4007839 4.58604072 9.93020358 4 7 C3.34 6.67 2.68 6.34 2 6 C2 5.34 2 4.68 2 4 C1.34 4 0.68 4 0 4 C0 2.68 0 1.36 0 0 Z " fill="#202C77" transform="translate(169,42)"/>
<path d="M0 0 C3.3 0 6.6 0 10 0 C10 0.66 10 1.32 10 2 C14.95 2 19.9 2 25 2 C25 2.66 25 3.32 25 4 C25.99 4.33 26.98 4.66 28 5 C24.58434439 6.12800972 22.09259089 5.866975 18.578125 5.22265625 C17.55332031 5.03896484 16.52851562 4.85527344 15.47265625 4.66601562 C13.87744141 4.36727539 13.87744141 4.36727539 12.25 4.0625 C11.17105469 3.86720703 10.09210938 3.67191406 8.98046875 3.47070312 C6.31887282 2.98784723 3.65891745 2.49735831 1 2 C0.67 2.99 0.34 3.98 0 5 C0 3.35 0 1.7 0 0 Z " fill="#121D61" transform="translate(65,119)"/>
<path d="M0 0 C-6.93510525 4.6234035 -13.80433953 5.46196834 -22 5 C-22 4.34 -22 3.68 -22 3 C-21.34773437 2.96261719 -20.69546875 2.92523438 -20.0234375 2.88671875 C-15.78270304 2.56772545 -12.59700488 2.29850244 -8.75 0.375 C-5.36657066 -1.31671467 -3.59236028 -0.94085626 0 0 Z " fill="#1E2873" transform="translate(158,226)"/>
<path d="M0 0 C0.33 0.66 0.66 1.32 1 2 C0.34 2 -0.32 2 -1 2 C-1.33 3.32 -1.66 4.64 -2 6 C-4.75026417 6.05404449 -7.49946203 6.09369306 -10.25 6.125 C-11.02730469 6.14175781 -11.80460937 6.15851563 -12.60546875 6.17578125 C-19.72431144 6.23662606 -19.72431144 6.23662606 -23 4 C-23 3.34 -23 2.68 -23 2 C-22.29746094 2.33386719 -21.59492188 2.66773438 -20.87109375 3.01171875 C-15.53892887 4.84714421 -9.18468632 4.11846655 -3.88671875 2.2578125 C-2.10930192 1.40238902 -2.10930192 1.40238902 0 0 Z " fill="#202980" transform="translate(281,202)"/>
<path d="M0 0 C0.99 0.33 1.98 0.66 3 1 C3.90816798 4.86207074 4.11643845 8.43148656 4.09765625 12.39453125 C4.09443359 13.59658203 4.09121094 14.79863281 4.08789062 16.03710938 C4.07951172 17.28298828 4.07113281 18.52886719 4.0625 19.8125 C4.05798828 21.07771484 4.05347656 22.34292969 4.04882812 23.64648438 C4.03706251 26.7643711 4.02062272 29.88216133 4 33 C3.67 33 3.34 33 3 33 C2.98018066 32.35562988 2.96036133 31.71125977 2.93994141 31.04736328 C2.84354411 28.07289417 2.73433899 25.09902043 2.625 22.125 C2.5940625 21.11179688 2.563125 20.09859375 2.53125 19.0546875 C2.28000739 12.52237962 1.50142207 6.36384183 0 0 Z " fill="#171D69" transform="translate(344,141)"/>
<path d="M0 0 C0.55558594 0.30292969 1.11117188 0.60585937 1.68359375 0.91796875 C4.12582899 2.05877678 6.44846024 2.66983261 9.0625 3.3125 C12.6855061 4.3476446 13.71972039 4.64552873 16.125 7.6875 C16.41375 8.450625 16.7025 9.21375 17 10 C13.38337055 9.41852777 10.57556081 8.46375626 7.375 6.6875 C6.61960937 6.27886719 5.86421875 5.87023437 5.0859375 5.44921875 C2.82945125 3.88151014 1.52045007 2.27099071 0 0 Z " fill="#212A81" transform="translate(262,223)"/>
<path d="M0 0 C3.98042168 0.58809834 6.86247219 1.82031677 10.3125 3.875 C11.19550781 4.38804688 12.07851562 4.90109375 12.98828125 5.4296875 C13.65214844 5.94789062 14.31601563 6.46609375 15 7 C15 7.99 15 8.98 15 10 C11.7 8.35 8.4 6.7 5 5 C5 4.34 5 3.68 5 3 C3.35 2.67 1.7 2.34 0 2 C0 1.34 0 0.68 0 0 Z " fill="#1A2575" transform="translate(150,30)"/>
<path d="M0 0 C4.21477565 4.07881515 8.10803395 8.41690528 12.01171875 12.79296875 C13.30508896 14.2286351 14.6336281 15.6336281 16 17 C12.13916775 16.77938101 11.10411443 16.11427194 8.4375 13.1875 C8.03015625 12.64996094 7.6228125 12.11242187 7.203125 11.55859375 C5.90660737 9.80316695 5.90660737 9.80316695 3.6875 7.75 C2 6 2 6 2 4 C1.34 4 0.68 4 0 4 C0 2.68 0 1.36 0 0 Z " fill="#272F71" transform="translate(72,159)"/>
<path d="M0 0 C1.65 0 3.3 0 5 0 C5 0.66 5 1.32 5 2 C5.845625 1.67 6.69125 1.34 7.5625 1 C11 1 11 1 12.95703125 2.71484375 C14.7205699 4.75853721 16.3950507 6.82999459 18 9 C17.67 9.66 17.34 10.32 17 11 C16.443125 10.61328125 15.88625 10.2265625 15.3125 9.828125 C10.35597191 6.44562948 5.42483749 3.56446863 0 1 C0 0.67 0 0.34 0 0 Z " fill="#1A2579" transform="translate(105,151)"/>
<path d="M0 0 C0.78246094 -0.01417969 1.56492187 -0.02835938 2.37109375 -0.04296875 C4.5625 0.1875 4.5625 0.1875 7.5625 2.1875 C4.2625 2.8475 0.9625 3.5075 -2.4375 4.1875 C-2.7675 5.5075 -3.0975 6.8275 -3.4375 8.1875 C-6.4375 4.5625 -6.4375 4.5625 -6.4375 1.1875 C-4.0978331 0.01766655 -2.60358473 0.0213759 0 0 Z " fill="#121768" transform="translate(41.4375,23.8125)"/>
<path d="M0 0 C0.99 0.33 1.98 0.66 3 1 C-1.20788009 6.75545909 -5.41509524 11.55487173 -11 16 C-10.625 14.0625 -10.625 14.0625 -10 12 C-9.34 11.67 -8.68 11.34 -8 11 C-7.67 10.01 -7.34 9.02 -7 8 C-6.34 8 -5.68 8 -5 8 C-5 7.34 -5 6.68 -5 6 C-4.01 6 -3.02 6 -2 6 C-1.855625 5.195625 -1.71125 4.39125 -1.5625 3.5625 C-1 1 -1 1 0 0 Z " fill="#1D266F" transform="translate(173,102)"/>
<path d="M0 0 C-1.375 1.5 -1.375 1.5 -3 3 C-3.66 3 -4.32 3 -5 3 C-5.268125 3.639375 -5.53625 4.27875 -5.8125 4.9375 C-7 7 -7 7 -10 8 C-10.33 8.99 -10.66 9.98 -11 11 C-11.33 10.01 -11.66 9.02 -12 8 C-10.85546875 5.9921875 -10.85546875 5.9921875 -9.1875 3.875 C-8.64480469 3.17117187 -8.10210937 2.46734375 -7.54296875 1.7421875 C-4.9271591 -1.2113596 -3.60627479 -1.08188244 0 0 Z " fill="#202C7D" transform="translate(66,80)"/>
<path d="M0 0 C3.92297846 0.56340648 6.49080356 1.70090379 9.75 3.9375 C10.52859375 4.46214844 11.3071875 4.98679687 12.109375 5.52734375 C14 7 14 7 15 9 C8.375 8.25 8.375 8.25 5 6 C5 5.34 5 4.68 5 4 C2.525 3.01 2.525 3.01 0 2 C0 1.34 0 0.68 0 0 Z " fill="#1B2572" transform="translate(308,87)"/>
<path d="M0 0 C-3.34166781 1.82569168 -6.73145247 2.91288092 -10.375 4 C-14.60788338 5.26887371 -18.8139734 6.58358012 -23 8 C-23.33 7.34 -23.66 6.68 -24 6 C-20.62902617 4.50178941 -18.79557881 4 -15 4 C-15 3.34 -15 2.68 -15 2 C-9.75614911 0.2520497 -5.52677733 -0.19392201 0 0 Z " fill="#212879" transform="translate(93,69)"/>
<path d="M0 0 C0.33 0 0.66 0 1 0 C1.28216939 5.54933132 1.19792483 8.32610986 -2 13 C-2.350625 14.051875 -2.70125 15.10375 -3.0625 16.1875 C-4 19 -4 19 -6 21 C-6.66 20.34 -7.32 19.68 -8 19 C-7.38125 17.9275 -6.7625 16.855 -6.125 15.75 C-5.41647783 14.50010702 -4.70812717 13.25011681 -4 12 C-3.443125 11.0409375 -3.443125 11.0409375 -2.875 10.0625 C-1.4955136 6.81085348 -0.801981 3.43706143 0 0 Z " fill="#1A226F" transform="translate(290,182)"/>
<path d="M0 0 C0.66 0 1.32 0 2 0 C2 0.99 2 1.98 2 3 C2.66 3 3.32 3 4 3 C6.46254726 9.61809577 6.18935472 16.00439516 6 23 C5.67 23 5.34 23 5 23 C4.80664062 21.89140625 4.61328125 20.7828125 4.4140625 19.640625 C4.15136511 18.17702524 3.88832633 16.71348673 3.625 15.25 C3.43550781 14.15558594 3.43550781 14.15558594 3.2421875 13.0390625 C2.57366746 9.36220227 1.76526833 6.28493411 0 3 C0 2.01 0 1.02 0 0 Z " fill="#202A74" transform="translate(285,118)"/>
<path d="M0 0 C-2.98418329 3.32851213 -5.84562769 5.3205729 -10 7 C-10.99 6.67 -11.98 6.34 -13 6 C-13 5.34 -13 4.68 -13 4 C-8.38987758 1.04952165 -5.63470383 -0.5497272 0 0 Z " fill="#19237D" transform="translate(321,224)"/>
<path d="M0 0 C0.77988281 0.18304688 1.55976562 0.36609375 2.36328125 0.5546875 C2.69328125 1.2146875 3.02328125 1.8746875 3.36328125 2.5546875 C-0.59852413 3.87528929 -4.51899578 3.62706935 -8.63671875 3.5546875 C-9.95671875 3.5546875 -11.27671875 3.5546875 -12.63671875 3.5546875 C-9.34206281 -1.62262898 -5.44981227 -0.59190014 0 0 Z " fill="#1F2C8C" transform="translate(93.63671875,66.4453125)"/>
<path d="M0 0 C0.33 0 0.66 0 1 0 C2.10545974 6.61943967 2.43822011 11.10590838 -1 17 C-1.99 17.66 -2.98 18.32 -4 19 C-3.52047576 16.28269597 -2.92618019 13.79238178 -2 11.1875 C-0.8189946 7.42304529 -0.40559252 3.92072774 0 0 Z " fill="#222D7A" transform="translate(251,272)"/>
<path d="M0 0 C0.33 1.32 0.66 2.64 1 4 C-2.19990508 6.74277578 -5.00499382 8.6302836 -9 10 C-8.34 7.69 -7.68 5.38 -7 3 C-6.01 3.33 -5.02 3.66 -4 4 C-3.01 3.67 -2.02 3.34 -1 3 C-0.67 2.01 -0.34 1.02 0 0 Z " fill="#1D2B81" transform="translate(167,216)"/>
<path d="M0 0 C0 0.66 0 1.32 0 2 C-0.99 2 -1.98 2 -3 2 C-3 2.66 -3 3.32 -3 4 C-3.99 4.495 -3.99 4.495 -5 5 C-5.33 5.99 -5.66 6.98 -6 8 C-5.34 8 -4.68 8 -4 8 C-3.67 8.99 -3.34 9.98 -3 11 C-5.4375 10.25 -5.4375 10.25 -8 9 C-9 7.0625 -9 7.0625 -9 5 C-6.83400098 2.03600133 -3.71834478 0 0 0 Z " fill="#1A206E" transform="translate(193,103)"/>
<path d="M0 0 C0.99 0 1.98 0 3 0 C3.33 0.99 3.66 1.98 4 3 C3.67 3.33 3.34 3.66 3 4 C2.71898054 6.31952569 2.55217375 8.63885514 2.37890625 10.96875 C2.25386719 11.6390625 2.12882813 12.309375 2 13 C1.01 13.495 1.01 13.495 0 14 C-1.00746004 10.86567988 -0.78454137 9.13816549 0 6 C-0.31478446 4.66216607 -0.64587656 3.32796291 -1 2 C-0.67 1.34 -0.34 0.68 0 0 Z " fill="#1E2C8B" transform="translate(130,75)"/>
<path d="M0 0 C3.96 0 7.92 0 12 0 C12 0.66 12 1.32 12 2 C13.65 2.33 15.3 2.66 17 3 C13.93109813 4.53445094 11.29905734 3.54984289 8 3 C8 2.34 8 1.68 8 1 C3.545 1.495 3.545 1.495 -1 2 C-0.67 1.34 -0.34 0.68 0 0 Z " fill="#182886" transform="translate(67,118)"/>
<path d="M0 0 C0 0.66 0 1.32 0 2 C2.64 2 5.28 2 8 2 C8 2.33 8 2.66 8 3 C5.37472811 3.05382106 2.75055287 3.09358313 0.125 3.125 C-0.62136719 3.14175781 -1.36773437 3.15851563 -2.13671875 3.17578125 C-4.09194461 3.1933959 -6.04742021 3.10320189 -8 3 C-8.66 2.34 -9.32 1.68 -10 1 C-6.78548731 -0.60725635 -3.56387464 -0.05748185 0 0 Z " fill="#1D2A89" transform="translate(110,133)"/>
<path d="M0 0 C4.29 1.32 8.58 2.64 13 4 C12.67 4.99 12.34 5.98 12 7 C8.37 6.01 4.74 5.02 1 4 C1 3.34 1 2.68 1 2 C0.34 1.67 -0.32 1.34 -1 1 C-0.67 0.67 -0.34 0.34 0 0 Z " fill="#162270" transform="translate(66,124)"/>
<path d="M0 0 C0.33 0.99 0.66 1.98 1 3 C-1 5 -1 5 -2.9453125 5.1953125 C-4.96354167 5.13020833 -6.98177083 5.06510417 -9 5 C-8.67 4.01 -8.34 3.02 -8 2 C-5.10441559 0.5522078 -3.25811062 0 0 0 Z " fill="#1C2A8A" transform="translate(131,124)"/>
<path d="M0 0 C7.48291572 6.15034169 7.48291572 6.15034169 10 10 C9.67 10.66 9.34 11.32 9 12 C8.7525 11.360625 8.505 10.72125 8.25 10.0625 C7.18437567 7.81258459 7.18437567 7.81258459 4.875 7.25 C4.25625 7.1675 3.6375 7.085 3 7 C3 6.34 3 5.68 3 5 C2.34 5 1.68 5 1 5 C0.67 3.35 0.34 1.7 0 0 Z " fill="#223075" transform="translate(168,149)"/>
<path d="M0 0 C0.103125 0.61875 0.20625 1.2375 0.3125 1.875 C0.87525373 4.36526484 0.87525373 4.36526484 4 6 C4.33 6.66 4.66 7.32 5 8 C2.03 8 -0.94 8 -4 8 C-3.34 7.67 -2.68 7.34 -2 7 C-1.26924352 4.6859378 -0.59861742 2.35171131 0 0 Z " fill="#172488" transform="translate(41,222)"/>
<path d="M0 0 C0 0.66 0 1.32 0 2 C-5.25798504 2.89497618 -10.6716379 3.64027162 -16 3 C-16.66 2.34 -17.32 1.68 -18 1 C-16.12528812 0.83012319 -14.25021305 0.66425224 -12.375 0.5 C-11.33085938 0.4071875 -10.28671875 0.314375 -9.2109375 0.21875 C-6.12853212 0.00875645 -3.08834771 -0.03709727 0 0 Z " fill="#172268" transform="translate(97,107)"/>
<path d="M0 0 C1.1446875 0.3403125 1.1446875 0.3403125 2.3125 0.6875 C-0.21538007 3.48622437 -1.89161134 5.14523019 -5.6875 5.6875 C-5.6875 2.6875 -5.6875 2.6875 -4.5 0.9375 C-2.6875 -0.3125 -2.6875 -0.3125 0 0 Z " fill="#1B2379" transform="translate(158.6875,117.3125)"/>
<path d="M0 0 C0.33 0.99 0.66 1.98 1 3 C-1.31 5.31 -3.62 7.62 -6 10 C-6.66 9.67 -7.32 9.34 -8 9 C-7.67 8.01 -7.34 7.02 -7 6 C-6.01 5.67 -5.02 5.34 -4 5 C-2.61423077 3.37667033 -1.27358732 1.71275535 0 0 Z " fill="#222D7D" transform="translate(329,214)"/>
<path d="M0 0 C2.79908133 2.79908133 2.72362983 5.13081763 3 9 C2.34 9.66 1.68 10.32 1 11 C1 10.01 1 9.02 1 8 C0.34 8 -0.32 8 -1 8 C-1.125 2.25 -1.125 2.25 0 0 Z " fill="#1D2D87" transform="translate(292,133)"/>
<path d="M0 0 C-1 2 -1 2 -3.0625 3.125 C-6.86725273 4.2583306 -10.0368828 4.13434296 -14 4 C-11.36711169 2.57385216 -8.65544851 1.41456868 -5.875 0.3125 C-5.19179687 0.04050781 -4.50859375 -0.23148437 -3.8046875 -0.51171875 C-2 -1 -2 -1 0 0 Z " fill="#1B2B73" transform="translate(111,103)"/>
<path d="M0 0 C0.556875 0.28875 1.11375 0.5775 1.6875 0.875 C4.00808578 2.06620729 4.00808578 2.06620729 6.625 2.875 C9.39919994 4.18909471 9.96368671 5.17369103 11 8 C6.40378078 6.5129879 3.53027653 4.20187872 0 1 C0 0.67 0 0.34 0 0 Z " fill="#191F70" transform="translate(262,223)"/>
<path d="M0 0 C1.41687119 4.25061356 0.19320039 6.71851625 -1 11 C-2.83832664 7.89782379 -3.47446226 5.60591321 -3 2 C-2.01 1.34 -1.02 0.68 0 0 Z " fill="#171E6A" transform="translate(255,115)"/>
<path d="M0 0 C0.66 0.33 1.32 0.66 2 1 C-3.29230769 5.06153846 -3.29230769 5.06153846 -6.875 4.75 C-7.57625 4.5025 -8.2775 4.255 -9 4 C-9 3.34 -9 2.68 -9 2 C-6.94921875 1.77213542 -4.8984375 1.54427083 -2.84765625 1.31640625 C-0.98859771 1.18113386 -0.98859771 1.18113386 0 0 Z " fill="#1C2B8A" transform="translate(106,105)"/>
<path d="M0 0 C6.75 0.75 6.75 0.75 9 3 C6.21176345 4.0326802 5.1322726 4.04509293 2.25 3.0625 C1.5075 2.711875 0.765 2.36125 0 2 C0 1.34 0 0.68 0 0 Z " fill="#182473" transform="translate(299,84)"/>
<path d="M0 0 C-6 4 -6 4 -11 4 C-11 3.34 -11 2.68 -11 2 C-7.17010894 0.19769832 -4.21878192 -0.19622241 0 0 Z " fill="#1B246A" transform="translate(153,123)"/>
<path d="M0 0 C0.66 1.32 1.32 2.64 2 4 C2.99 4 3.98 4 5 4 C4.67 5.98 4.34 7.96 4 10 C3.34 9.01 2.68 8.02 2 7 C0.67618483 5.32576317 -0.65576661 3.65788785 -2 2 C-1.34 2 -0.68 2 0 2 C0 1.34 0 0.68 0 0 Z " fill="#1E2679" transform="translate(192,112)"/>
<path d="M0 0 C1.5625 1.0625 1.5625 1.0625 3 3 C2.6875 6.6875 2.6875 6.6875 2 10 C0.35561095 7.04009971 -0.54561951 4.36241563 -1 1 C-0.67 0.67 -0.34 0.34 0 0 Z " fill="#24308D" transform="translate(178,59)"/>
<path d="M0 0 C1.5 1.1875 1.5 1.1875 3 3 C3.1875 5.6875 3.1875 5.6875 3 8 C2.01 8 1.02 8 0 8 C0 5.36 0 2.72 0 0 Z " fill="#203193" transform="translate(43,207)"/>
<path d="M0 0 C0.66 0 1.32 0 2 0 C1.67 2.97 1.34 5.94 1 9 C0.34 8.34 -0.32 7.68 -1 7 C-0.625 3.375 -0.625 3.375 0 0 Z " fill="#121A65" transform="translate(345,176)"/>
<path d="M0 0 C3.81684226 1.55500981 6.19195732 4.03595495 9 7 C6.75 6.875 6.75 6.875 4 6 C1.6875 2.9375 1.6875 2.9375 0 0 Z " fill="#29317F" transform="translate(79,169)"/>
<path d="M0 0 C0 1.65 0 3.3 0 5 C-1.65 4.67 -3.3 4.34 -5 4 C-4.67 3.01 -4.34 2.02 -4 1 C-1 0 -1 0 0 0 Z " fill="#1A247E" transform="translate(195,286)"/>
<path d="M0 0 C-1.6875 2.0625 -1.6875 2.0625 -4 4 C-6.75 3.75 -6.75 3.75 -9 3 C-6.38997624 -0.48003168 -4.1689578 -0.27793052 0 0 Z " fill="#1B2D82" transform="translate(321,224)"/>
<path d="M0 0 C1.98 0 3.96 0 6 0 C6 0.66 6 1.32 6 2 C6.66 2.33 7.32 2.66 8 3 C6.02 3.33 4.04 3.66 2 4 C2 3.01 2 2.02 2 1 C1.34 0.67 0.68 0.34 0 0 Z " fill="#172686" transform="translate(249,209)"/>
<path d="M0 0 C0 0.33 0 0.66 0 1 C-1.65 1 -3.3 1 -5 1 C-5 1.66 -5 2.32 -5 3 C-7.97 2.505 -7.97 2.505 -11 2 C-7.36576791 -0.32590854 -4.22911669 -0.16265833 0 0 Z " fill="#13217D" transform="translate(139,126)"/>
<path d="M0 0 C0.33 0 0.66 0 1 0 C1 1.65 1 3.3 1 5 C-0.65 5.33 -2.3 5.66 -4 6 C-4 5.01 -4 4.02 -4 3 C-3.34 3 -2.68 3 -2 3 C-1.67 2.34 -1.34 1.68 -1 1 C-0.67 0.67 -0.34 0.34 0 0 Z " fill="#182589" transform="translate(175,97)"/>
<path d="M0 0 C0.33 0.99 0.66 1.98 1 3 C0 4 0 4 -3.5625 4.0625 C-4.696875 4.041875 -5.83125 4.02125 -7 4 C-4.61426621 2.10786631 -2.92824652 0.97608217 0 0 Z " fill="#1B2A87" transform="translate(229,88)"/>
<path d="M0 0 C0.99 0 1.98 0 3 0 C3.66 2.31 4.32 4.62 5 7 C3.0625 6.3125 3.0625 6.3125 1 5 C0.25 2.375 0.25 2.375 0 0 Z " fill="#18236B" transform="translate(176,55)"/>
</svg>
